
          <svg data-logo="logo" xmlns="http://www.w3.org/2000/svg" viewBox="0 0 171 43">
            <g id="logogram" transform="translate(0, 1) rotate(0)"><path fill-rule="evenodd" clip-rule="evenodd" d="M1.65122 13.129C0.175304 16.7836 -0.210865 20.8049 0.541606 24.6846C1.29399 28.5641 3.15122 32.1279 5.8783 34.9248C8.60538 37.7218 12.08 39.6267 15.8625 40.3984C19.6453 41.1701 23.5661 40.774 27.1293 39.2603C30.6924 37.7466 33.7379 35.183 35.8805 31.8941C35.9376 31.8064 35.9941 31.7183 36.0498 31.6297C36.0891 31.5673 36.1282 31.5044 36.1669 31.4414V40.7827H37.6669C41.5236 40.7827 45.2938 39.6097 48.5004 37.412C51.7073 35.2146 54.2066 32.0909 55.6824 28.4363C57.1585 24.7819 57.5446 20.7606 56.7921 16.8809C56.0397 13.0013 54.1826 9.4376 51.4555 6.6406C48.7283 3.8435 45.2537 1.93873 41.4712 1.16706C37.6884 0.395294 33.7677 0.791366 30.2044 2.30513C26.6414 3.8189 23.5959 6.38237 21.4532 9.67131C21.3558 9.821 21.2603 9.97198 21.1668 10.124V0.782727H19.6669C15.8101 0.782727 12.04 1.95573 8.83326 4.15337C5.62653 6.35091 3.12715 9.4745 1.65122 13.129ZM18.1669 20.7827V3.9297C15.4329 4.18567 12.7958 5.13839 10.5 6.71167C7.78654 8.57119 5.67176 11.2143 4.42289 14.3065C3.17402 17.3989 2.84727 20.8014 3.48393 24.0843C4.12059 27.367 5.69209 30.3824 7.99958 32.7491C10.3072 35.1158 13.2472 36.7276 16.4479 37.3806C19.6486 38.0336 22.9662 37.6984 25.9812 36.4176C28.8751 35.1881 31.3654 33.1404 33.164 30.517C31.8009 31.1807 30.2761 31.552 28.6669 31.552C22.868 31.552 18.1669 26.7303 18.1669 20.7827ZM39.1668 37.6357V20.7827C39.1668 14.8351 34.4658 10.0135 28.6669 10.0135C27.0576 10.0135 25.5329 10.3848 24.1697 11.0485C25.9683 8.42499 28.4587 6.3772 31.3526 5.14786C34.3676 3.86697 37.6851 3.53184 40.8858 4.18483C44.0865 4.8378 47.0266 6.4496 49.3342 8.81626C51.6417 11.183 53.2132 14.1984 53.8497 17.4811C54.4864 20.764 54.1597 24.1666 52.9108 27.2589C51.6621 30.3511 49.5472 32.9943 46.8338 34.8537C44.5379 36.427 41.9008 37.3797 39.1668 37.6357ZM28.5168 28.4736C24.4938 28.3926 21.2473 25.0627 21.1684 20.9366H24.0058C26.2442 21.4599 28.0064 23.267 28.5168 25.5629V28.4736ZM28.8168 28.4736C32.8398 28.3926 36.0864 25.0627 36.1654 20.9366H33.3279C31.0892 21.4599 29.3271 23.2673 28.8168 25.5634V28.4736ZM36.1654 20.6289C36.0864 16.5027 32.8398 13.1729 28.8168 13.0919V16.002C29.3271 18.298 31.0891 20.1054 33.3275 20.6289H36.1654ZM28.5168 13.0919C24.4939 13.1729 21.2473 16.5027 21.1684 20.6289H24.0063C26.2445 20.1054 28.0065 18.2983 28.5168 16.0026V13.0919Z" fill="#8046FD"/></g>
            <g id="logotype" transform="translate(64, 8.5)"><path fill="#cfbdff" d="M12.90 26L8.06 26L8.06 7.99L12.90 7.99L12.90 26ZM10.48 5.63L10.48 5.63Q9.38 5.63 8.61 4.91Q7.84 4.18 7.84 3.15L7.84 3.15Q7.84 2.12 8.61 1.40Q9.38 0.67 10.48 0.67L10.48 0.67Q11.58 0.67 12.36 1.39Q13.14 2.10 13.14 3.15L13.14 3.15Q13.14 4.18 12.36 4.91Q11.58 5.63 10.48 5.63ZM19.69 15.57L19.69 15.57L19.69 26L14.86 26L14.86 7.99L19.42 7.99L19.50 12.48L19.21 12.48Q19.92 10.23 21.36 8.99Q22.80 7.76 25.09 7.76L25.09 7.76Q26.96 7.76 28.35 8.57Q29.73 9.39 30.51 10.91Q31.28 12.43 31.28 14.54L31.28 14.54L31.28 26L26.45 26L26.45 15.38Q26.45 13.71 25.58 12.75Q24.72 11.80 23.19 11.80L23.19 11.80Q22.18 11.80 21.38 12.25Q20.58 12.69 20.14 13.53Q19.69 14.37 19.69 15.57ZM31.52 7.99L42.20 7.99L42.20 11.68L31.52 11.68L31.52 7.99ZM34.00 21.15L34.00 3.70L38.84 3.70L38.84 20.73Q38.84 21.58 39.21 22.00Q39.59 22.41 40.48 22.41L40.48 22.41Q40.75 22.41 41.25 22.33Q41.75 22.26 42.01 22.20L42.01 22.20L42.70 25.82Q41.90 26.06 41.10 26.16Q40.30 26.26 39.58 26.26L39.58 26.26Q36.87 26.26 35.44 24.94Q34.00 23.62 34.00 21.15L34.00 21.15ZM51.34 26.35L51.34 26.35Q48.58 26.35 46.58 25.23Q44.59 24.10 43.51 22.02Q42.44 19.94 42.44 17.09L42.44 17.09Q42.44 14.30 43.51 12.21Q44.57 10.11 46.52 8.94Q48.47 7.76 51.10 7.76L51.10 7.76Q52.87 7.76 54.40 8.32Q55.93 8.89 57.09 10.02Q58.25 11.16 58.90 12.87Q59.55 14.58 59.55 16.90L59.55 16.90L59.55 18.25L44.42 18.25L44.42 15.22L57.19 15.22L54.93 16.03Q54.93 14.62 54.50 13.58Q54.08 12.55 53.23 11.97Q52.38 11.40 51.13 11.40L51.13 11.40Q49.89 11.40 49.01 11.98Q48.13 12.56 47.68 13.55Q47.23 14.54 47.23 15.82L47.23 15.82L47.23 17.96Q47.23 19.52 47.75 20.59Q48.28 21.65 49.22 22.18Q50.16 22.71 51.42 22.71L51.42 22.71Q52.27 22.71 52.96 22.47Q53.66 22.23 54.15 21.75Q54.64 21.28 54.90 20.59L54.90 20.59L59.28 21.41Q58.85 22.89 57.77 24.01Q56.69 25.13 55.07 25.74Q53.45 26.35 51.34 26.35ZM65.55 26L60.71 26L60.71 7.99L65.39 7.99L65.39 11.13L65.58 11.13Q66.08 9.45 67.25 8.60Q68.42 7.74 69.93 7.74L69.93 7.74Q70.30 7.74 70.73 7.78Q71.15 7.82 71.49 7.90L71.49 7.90L71.49 12.22Q71.17 12.11 70.56 12.05Q69.95 11.98 69.40 11.98L69.40 11.98Q68.30 11.98 67.42 12.46Q66.53 12.93 66.04 13.78Q65.55 14.62 65.55 15.75L65.55 15.75L65.55 26ZM82.58 26L77.08 26L70.44 7.99L75.58 7.99L78.61 17.33Q79.16 19.09 79.57 20.88Q79.98 22.66 80.42 24.58L80.42 24.58L79.39 24.58Q79.81 22.66 80.21 20.88Q80.61 19.09 81.16 17.33L81.16 17.33L84.16 7.99L89.23 7.99L82.58 26ZM95.85 26.23L95.85 26.23Q93.98 26.23 92.58 25.41Q91.18 24.60 90.41 23.08Q89.65 21.55 89.65 19.44L89.65 19.44L89.65 7.99L94.48 7.99L94.48 18.60Q94.48 20.28 95.35 21.23Q96.22 22.18 97.74 22.18L97.74 22.18Q98.77 22.18 99.56 21.74Q100.35 21.29 100.79 20.45Q101.23 19.60 101.23 18.41L101.23 18.41L101.23 7.99L106.07 7.99L106.07 26L101.51 26L101.44 21.50L101.72 21.50Q101.01 23.78 99.55 25.00Q98.09 26.23 95.85 26.23Z"/></g>
            
          </svg>
        