<?xml version="1.0" encoding="utf-8"?>
<!-- Generator: Adobe Illustrator 27.5.0, SVG Export Plug-In . SVG Version: 6.00 Build 0)  -->
<svg version="1.1" id="Capa_1" xmlns="http://www.w3.org/2000/svg" xmlns:xlink="http://www.w3.org/1999/xlink" x="0px" y="0px"
	 viewBox="0 0 1841 2446" style="enable-background:new 0 0 1841 2446;" xml:space="preserve">
<path style="fill:#C5DCEA;" d="M1337.802,1439.991c44.006-15.383,75.828-34.897,88.705-58.531c1.272-2.336,2.513-4.972,3.736-7.781
	c-32.074-15.803-54.444-51.013-54.444-92.006c0-55.164,40.285-86.854,85.804-106.427c1.104-0.754,2.234-1.47,3.332-2.234
	c4.324-51.439,7.506-108.963,9.592-169.656c-2.44-1.585-4.908-3.124-7.398-4.628c-9.642,17.053-24.339,27.964-40.82,27.964
	c-29.046,0-52.592-33.845-52.592-75.594c0-41.75,23.546-75.594,52.592-75.594c10.979,0,21.164,4.847,29.597,13.116
	c0.768,0.208,1.568,0.365,2.296,0.635c6.431,2.386,12.677,4.979,18.838,7.681c0.499-37.024,0.631-74.518,0.411-111.919
	c-6.069,1.555-11.809,2.596-17.015,3.042c-2.072,11.718-12.15,20.871-24.49,21.282c-14.156,0.473-26.125-10.723-26.597-24.878
	l-13.068-391.408c-0.473-14.156,10.723-26.124,24.878-26.597c10.579-0.354,19.928,5.816,24.179,14.862
	c4.106,0.028,8.586,0.396,13.359,1.104c-8.233-77.472-19.037-134.627-32.191-157.309c-63.59-109.653-729.778-126.268-829.705,0
	c-20.456,25.847-36.21,83.89-47.587,160.983c-15.63,105.91-22.988,247.805-22.882,391.82c0.024,33.308,0.455,66.716,1.268,99.829
	c0.817,33.257,2.029,66.183,3.621,98.394c9.351,189.197,31.885,353.045,65.58,405.32c13.635,21.152,41.308,38.934,78.574,53.395
	c26.365,10.231,57.528,18.799,91.951,25.713c140.61,28.242,335.365,28.9,477.881,2.911
	C1279.632,1457.203,1310.98,1449.368,1337.802,1439.991z"/>
<path style="fill:#659FBA;" d="M1437.401,983.195c-1.534-0.6-3.048-1.247-4.593-1.82c-12.23-4.538-21.477-10.987-28.546-21.951
	c-6.998-10.854-7.601-24.578-4.815-36.806c2.593-11.387,12.042-22.748,21.95-28.546c9.163-5.362,23.647-8.397,34.511-5.451
	c-8.432-8.269-18.618-13.116-29.597-13.116c-29.046,0-52.592,33.845-52.592,75.594c0,41.75,23.546,75.594,52.592,75.594
	c16.48,0,31.177-10.911,40.82-27.964C1457.554,992.946,1447.622,987.77,1437.401,983.195z"/>
<path style="fill:#DCEBF5;" d="M1265.925,882.206c-25.196-24.757-192.781-1.555-348.168-7.477
	c-155.388-5.922-298.578-40.969-338.171-12.461c-26.195,18.861-25.683,122.379-21.64,194.386
	c9.164,163.185,39.668,292.777,86.237,333.944c69.588,61.518,554.352,85.355,611.742,25.338
	C1313.315,1355.918,1316.317,931.719,1265.925,882.206z"/>
<path style="fill:#93BFD6;" d="M1059.739,905.521H775.774c-23.265,0-42.125,18.86-42.125,42.126v105.87
	c0,23.265,18.86,42.125,42.125,42.125h283.965c23.266,0,42.125-18.86,42.125-42.125v-105.87
	C1101.864,924.381,1083.005,905.521,1059.739,905.521z"/>
<path style="fill:#1E173A;" d="M1042.958,917.87H778.071c-14.93,0-27.033,12.103-27.033,27.033v97.954
	c0,14.93,12.103,27.033,27.033,27.033h264.887c14.93,0,27.033-12.103,27.033-27.033v-97.954
	C1069.99,929.973,1057.888,917.87,1042.958,917.87z"/>
<path style="fill:#98C21D;" d="M806.331,935.315H787.64c-10.667,0-19.314,8.647-19.314,19.314v73.517
	c0,10.667,8.647,19.313,19.314,19.313h18.691c10.667,0,19.314-8.647,19.314-19.313v-73.517
	C825.645,943.962,816.998,935.315,806.331,935.315z"/>
<path style="fill:#98C21D;" d="M880.189,935.315h-18.691c-10.666,0-19.314,8.647-19.314,19.314v73.517
	c0,10.667,8.647,19.313,19.314,19.313h18.691c10.667,0,19.314-8.647,19.314-19.313v-73.517
	C899.503,943.962,890.856,935.315,880.189,935.315z"/>
<path style="fill:#98C21D;" d="M954.047,935.315h-18.691c-10.667,0-19.314,8.647-19.314,19.314v73.517
	c0,10.667,8.647,19.313,19.314,19.313h18.691c10.667,0,19.314-8.647,19.314-19.313v-73.517
	C973.361,943.962,964.714,935.315,954.047,935.315z"/>
<path style="fill:#98C21D;" d="M1027.905,935.315h-18.691c-10.667,0-19.314,8.647-19.314,19.314v73.517
	c0,10.667,8.647,19.313,19.314,19.313h18.691c10.667,0,19.313-8.647,19.313-19.313v-73.517
	C1047.219,943.962,1038.572,935.315,1027.905,935.315z"/>
<path style="fill:#FFFFFF;" d="M803.306,949.807c-2.762-2.761-7.292-4.841-11.259-4.663c-8.01,0.359-16.693,7.036-15.922,15.922
	c1.392,16.04,1.674,32.149,0.845,48.229c-0.429,8.331,7.63,16.293,15.922,15.922c8.993-0.403,15.462-6.998,15.922-15.922
	c0.828-16.079,0.545-32.188-0.846-48.229C807.597,956.771,806.444,952.945,803.306,949.807z"/>
<path style="fill:#FFFFFF;" d="M875.353,949.892c-2.761-2.761-7.292-4.841-11.258-4.663c-4.118,0.184-8.389,1.537-11.259,4.663
	c-2.747,2.992-4.947,7.06-4.663,11.258c0.974,14.408,1.947,28.816,2.921,43.224c0.287,4.25,1.582,8.176,4.663,11.258
	c2.761,2.762,7.292,4.842,11.258,4.663c4.117-0.184,8.389-1.537,11.259-4.663c2.747-2.992,4.947-7.06,4.663-11.258
	c-0.973-14.409-1.947-28.816-2.92-43.224C879.73,956.9,878.436,952.974,875.353,949.892z"/>
<path style="fill:#FFFFFF;" d="M940.928,943.539c-8.626,0.386-15.922,6.996-15.922,15.922c0,15.507,0,31.013,0,46.52
	c0,8.328,7.323,16.307,15.922,15.922c8.627-0.386,15.922-6.996,15.922-15.922c0-15.507,0-31.013,0-46.52
	C956.85,951.133,949.527,943.154,940.928,943.539z"/>
<path style="fill:#FFFFFF;" d="M1025.265,949.866c-2.761-2.762-7.292-4.842-11.258-4.664c-4.118,0.185-8.389,1.537-11.259,4.664
	c-2.762,3.009-4.909,7.043-4.663,11.258c0.809,13.863,1.618,27.725,2.428,41.588c0.247,4.228,1.608,8.203,4.664,11.259
	c2.761,2.761,7.292,4.841,11.259,4.663c4.117-0.185,8.388-1.537,11.258-4.663c2.763-3.01,4.91-7.043,4.664-11.259
	c-0.81-13.863-1.619-27.725-2.428-41.588C1029.682,956.896,1028.321,952.921,1025.265,949.866z"/>
<path style="fill:#27224F;" d="M526.333,777.918c-0.106-144.015,7.252-285.909,22.882-391.82
	c-38.547,10.433-84.768,36.854-92.691,69.04c-13.241,53.794-15.129,198.904-8.531,251.074
	C451.679,735.355,490.186,763.339,526.333,777.918z"/>
<path style="fill:#FFFFFF;" d="M497.141,643.773c-2.236-60.859,1.463-121.871,11.61-181.931c1.431-8.469-2.238-17.145-11.121-19.586
	c-7.64-2.099-18.145,2.595-19.586,11.121c-10.627,62.9-15.09,126.637-12.747,190.396
	C466.048,664.203,497.895,664.301,497.141,643.773z"/>
<path style="fill:#27224F;" d="M453.789,994.482c27.135-3.207,52.458-9.196,77.434-18.341c-1.592-32.211-2.805-65.137-3.621-98.394
	c-6.007,0.654-11.876,2.386-17.952,4.976c-19.02,7.725-38.877,13.266-59.15,16.488c-13.797,1.418-27.681,1.623-41.487,0.257
	c-8.038-1.465-15.925-3.578-23.599-6.391c-4.204-2.081-8.273-4.404-12.186-6.987c-4.089-3.5-7.894-7.288-11.401-11.374
	c-2.628-3.971-5.003-8.096-7.117-12.366c-3.207-8.724-5.505-17.717-7.068-26.88c-1.623-17.199-1.065-34.508,0.793-51.682
	c0.907-6.091,1.952-12.155,3.128-18.194c4.898-12.152,8.363-24.099,10.556-35.618c0.023-0.027,0.052-0.042,0.075-0.07
	c4.828-5.825,9.303-12.065,13.159-18.575c5.938-10.024,12.255-23.215,8.54-35.102c-2.663-8.521-10.177-14.262-18.856-15.709
	c-0.923-0.154-1.82-0.242-2.705-0.279c2.033-32.586,4.899-65.234,2.576-97.859c-0.458-6.434-5.16-11.942-11.941-11.942
	c-6.108,0-12.402,5.474-11.941,11.942c2.03,28.506,0.094,57.029-1.783,85.512c-0.871-12.76-2.7-25.487-5.013-38.023
	c-2.763-14.983-6.201-30.09-11.761-44.311c-2.347-6.002-8.008-10.176-14.689-8.34c-5.726,1.573-10.702,8.649-8.341,14.689
	c5.382,13.765,8.755,28.361,11.49,42.855c1.603,8.495,2.87,16.871,3.744,25.339c-1.893-5.743-8.543-9.749-14.487-7.826
	c-6.17,1.996-10.101,8.232-8.34,14.689c0.228,0.835,0.456,1.671,0.683,2.506c-2.039-5.56-8.53-9.378-14.356-7.492
	c-3.979,1.288-6.998,4.346-8.188,8.082c-2.481,5.348-4.511,20.261-6.211,28.229c-5.443,25.507-7.564,66.702-10.683,98.413
	c-0.193,1.964-0.114,3.752,0.095,5.451c-1.841,16.755-2.741,33.563-1.367,50.434c3.269,40.097,14.953,76.339,40.575,107.7
	C330.293,986.681,396.682,1001.231,453.789,994.482z"/>
<path style="fill:#47BCCA;" d="M351.941,688.409c-0.164,0.036-0.304,0.097-0.465,0.136l-0.001-0.002
	c-0.006,0.002-0.013,0.006-0.02,0.008c-4.043,0.984-7.158,2.968-9.986,3.956c-1.285,0.472-2.698,0.76-3.913,0.756
	c-1.419-0.006-2.455-0.349-3.189-0.98c-0.929-0.789-1.447-2.114-1.46-4.046c-0.002-1.321,0.277-2.815,0.733-4.153
	c1.95-5.787,6.267-10.847,11.674-13.683c1.556-0.82,2.154-2.745,1.335-4.301c-0.819-1.556-2.745-2.154-4.301-1.335
	c-6.891,3.637-12.234,9.899-14.741,17.277c-0.645,1.915-1.065,4.023-1.068,6.195c-0.013,3.048,0.893,6.478,3.68,8.879
	c0.684,0.587,1.427,1.017,2.188,1.382c-2.85,2.034-5.598,4.223-8.066,6.781c-7.386,7.676-12.531,17.992-12.549,28.978l0.011,0.879
	c0.319,11.362,6.728,22.699,17.493,27.414c1.614,0.698,3.489-0.045,4.186-1.66c0.698-1.614-0.046-3.489-1.66-4.186
	c-8.039-3.408-13.45-12.618-13.652-21.732l-0.009-0.716c-0.018-8.927,4.307-17.869,10.766-24.559
	c6.639-6.898,15.45-11.719,24.77-15.187c1.558-0.58,2.409-2.268,1.949-3.865C355.186,689.049,353.568,688.072,351.941,688.409z"/>
<path style="fill:#47BCCA;" d="M323.59,678.436c1.292-3.001,1.662-6.1,1.662-9.051c-0.001-2.596-0.284-5.108-0.556-7.457
	c-0.203-1.747-1.783-2.999-3.53-2.796c-1.747,0.203-2.999,1.784-2.796,3.53c0.271,2.321,0.515,4.599,0.513,6.722
	c0.001,2.425-0.313,4.612-1.142,6.529c-0.551,1.291-1.58,2.57-2.783,3.45c-1.203,0.891-2.528,1.353-3.62,1.345
	c-0.537-0.002-1.029-0.097-1.522-0.307c-1.068-0.457-1.954-1.34-2.796-2.772c-0.831-1.414-1.508-3.284-2.112-5.187
	c-0.503-1.574-2.135-2.503-3.746-2.133c-1.611,0.37-2.673,1.918-2.44,3.554c0.198,1.388,0.297,2.792,0.297,4.199
	c0.002,5.545-1.534,11.121-4.409,15.839c-0.643,1.095-1.257,1.732-1.565,1.851l-0.609,0.124c-0.499,0.013-1.28-0.233-1.871-0.656
	c-0.432-0.291-2.374-1.887-4.412-4.96c-2.058-3.087-4.309-7.702-5.631-14.281c-0.346-1.724-2.025-2.842-3.749-2.496
	c-1.724,0.346-2.842,2.025-2.496,3.749l0,0c1.482,7.392,4.076,12.816,6.577,16.563c2.521,3.761,4.85,5.794,6.074,6.655
	c1.556,1.071,3.424,1.783,5.507,1.796c1.124,0.001,2.32-0.231,3.442-0.789c2.225-1.14,3.345-2.923,4.172-4.244
	c2.349-3.862,3.875-8.156,4.674-12.581c0.766,0.627,1.598,1.202,2.583,1.624c1.313,0.564,2.694,0.823,4.031,0.821
	c2.766-0.008,5.303-1.047,7.398-2.586C320.833,682.94,322.537,680.86,323.59,678.436z"/>
<path style="fill:#659FBA;" d="M1298.792,361.693c-52.978-41.556-607.99-47.852-691.242,0c-83.251,47.853-73.16,386.602,0,438.232
	c73.161,51.631,630.905,50.372,691.242,0C1359.129,749.554,1351.771,403.25,1298.792,361.693z"/>
<path style="fill:#27224F;" d="M620.779,741.105c66.873,43.012,576.677,41.963,631.828,0c55.15-41.964,48.424-330.459,0-365.078
	c-48.425-34.619-555.731-39.865-631.828,0C544.683,415.891,553.906,698.093,620.779,741.105z"/>
<path style="fill:#252F6C;" d="M1138,396.821c-38.04-25.741-436.555-29.642-496.332,0c-59.777,29.642-52.532,239.475,0,271.458
	c52.531,31.982,453.008,31.201,496.332,0C1181.323,637.076,1176.04,422.562,1138,396.821z"/>
<path style="fill:#FFFFFF;" d="M798.835,608.518c4.091-51.459,4.769-103.311,5.387-154.913c0.245-20.498-31.598-20.51-31.844,0
	c-0.618,51.603-1.297,103.455-5.387,154.913c-0.682,8.583,7.806,15.922,15.922,15.922
	C792.095,624.44,798.15,617.126,798.835,608.518z"/>
<path style="fill:#FFFFFF;" d="M1091.33,453.605c-0.618,51.603-1.296,103.455-5.387,154.913
	c-0.682,8.583,7.807,15.922,15.922,15.922c9.183,0,15.238-7.314,15.922-15.922c4.09-51.459,4.769-103.311,5.387-154.913
	C1123.419,433.107,1091.576,433.094,1091.33,453.605z"/>
<path style="fill:#47BCCA;" d="M996.54,602.178c-3.502-0.331-6.609,2.24-6.94,5.741c-0.533,5.555-2.305,10.219-5.058,14.307
	c-4.119,6.109-10.628,10.955-18.65,14.267c-8,3.31-17.432,5.027-26.865,5.022c-12.238,0.016-24.436-2.903-33.524-8.295
	c-4.554-2.689-8.329-5.961-11.122-9.734c-2.792-3.783-4.646-8.05-5.378-13.065c-0.504-3.481-3.734-5.895-7.215-5.392
	c-3.481,0.503-5.895,3.734-5.391,7.215c1.022,7.112,3.782,13.478,7.749,18.822c5.963,8.036,14.485,13.792,24.023,17.57
	c9.557,3.775,20.205,5.611,30.859,5.616c14.597-0.018,29.256-3.428,41.081-10.757c5.899-3.67,11.086-8.363,14.988-14.137
	c3.905-5.764,6.472-12.613,7.185-20.24C1002.612,605.615,1000.041,602.509,996.54,602.178z"/>
<path style="fill:#27224F;" d="M966.65,1116.025c-0.01,0-3.706,0.037-10.178,0.094c-19.415,0.169-63.716,0.506-107.417,0.506
	c-32.047,0-63.781-0.182-85.099-0.743c-12.702-0.306-25.531-1.2-35.191-7.597c-8.416-5.537-13.352-13.991-16.253-24.105
	c-2.887-10.089-3.61-21.701-3.605-32.847c0-1.832,0.019-3.651,0.05-5.45c0.545-31.576,1.636-94.729,1.636-94.729
	c0.031-1.759-1.371-3.209-3.129-3.239c-1.758-0.03-3.208,1.371-3.239,3.129v-0.001c0,0-1.091,63.154-1.636,94.73
	c-0.032,1.828-0.051,3.684-0.051,5.56c0.005,11.417,0.703,23.55,3.85,34.596c3.134,11.02,8.845,21.091,18.879,27.679
	c11.654,7.61,25.727,8.276,38.521,8.641c21.438,0.564,53.19,0.745,85.266,0.745c58.31,0,117.653-0.6,117.659-0.6
	c1.758-0.018,3.17-1.458,3.152-3.216C969.849,1117.418,968.409,1116.007,966.65,1116.025z"/>
<path style="fill:#27224F;" d="M738.763,1664.536c-0.516-1.681-2.297-2.627-3.978-2.111c-1.681,0.515-2.626,2.297-2.111,3.978l0,0
	c32.806,106.975,40.535,229.974,40.528,336.595c0,43.617-1.289,84.464-2.67,120.404c-62.893-59.874-143.625-80.199-212.444-83.249
	c-1.758-0.078-3.245,1.283-3.323,3.04c-0.078,1.757,1.283,3.244,3.04,3.322c69.355,3.076,150.48,23.844,212.397,85.328
	c-0.494,12.51-0.986,24.404-1.426,35.52c-30.823-16.981-180.133-97.085-238.37-88.249c-0.018,0.003-0.043,0.014-0.061,0.017
	c-20.692,3.22-76.412,55.965-98.746,117.282c-12.072,33.144-5.366,85.441,0,98.65c16.257,40.021,251.694-16.102,307.182-44.746
	c3.388-1.749,6.434-3.703,9.235-5.789c29.024-21.615,27.958-59.217,26.88-70.605c1.755-45.677,4.674-105.147,4.674-170.926
	C779.564,1896.063,771.867,1772.544,738.763,1664.536z"/>
<path style="fill:#27224F;" d="M1481.632,2079.132c-0.018-0.003-0.043-0.014-0.062-0.017
	c-58.238-8.836-207.547,71.268-238.37,88.249c-0.439-11.116-0.932-23.01-1.426-35.519c61.917-61.486,143.042-82.253,212.398-85.329
	c1.756-0.078,3.118-1.565,3.04-3.322c-0.078-1.757-1.565-3.118-3.321-3.04h-0.001c-68.82,3.05-149.552,23.375-212.444,83.249
	c-1.381-35.939-2.67-76.787-2.67-120.404c-0.007-106.621,7.723-229.621,40.529-336.596c0.515-1.682-0.43-3.462-2.111-3.978
	c-1.681-0.515-3.462,0.43-3.978,2.111l0,0c-33.105,108.008-40.802,231.527-40.809,338.463c0.001,65.779,2.919,125.249,4.676,170.927
	c-1.078,11.388-2.143,48.988,26.88,70.604c2.8,2.086,5.846,4.041,9.234,5.789c55.488,28.644,290.926,84.766,307.182,44.746
	c5.366-13.208,12.072-65.506,0-98.65C1558.044,2135.097,1502.325,2082.352,1481.632,2079.132z"/>
<path style="fill:#27224F;" d="M1270.509,1616.04c1.399,10.665,2.722,21.338,3.984,32.02c0.069-0.024,0.106-0.036,0.106-0.036
	l94.188-11.313c-7.996-65.912-18.534-131.533-30.983-196.72c-26.823,9.376-58.17,17.211-92.595,23.489
	C1254.9,1514.111,1263.491,1564.945,1270.509,1616.04z"/>
<path style="fill:#27224F;" d="M737.485,1648.06c1.261-10.674,2.583-21.341,3.981-31.999
	c7.153-52.083,15.939-103.892,25.861-155.492c-34.423-6.914-65.586-15.483-91.951-25.713
	c-12.836,66.938-23.75,134.219-32.023,201.875l94.026,11.294C737.379,1648.025,737.416,1648.036,737.485,1648.06z"/>
<path style="fill:#27224F;" d="M1460.438,788.06c5.206-0.447,10.946-1.488,17.015-3.042c40.491-10.369,95.318-43.74,99.752-78.804
	c6.598-52.17,4.711-197.281-8.531-251.074c-9.158-37.202-69.478-66.708-109.974-72.714c-4.773-0.707-9.253-1.076-13.359-1.104
	c-11.429-0.079-19.854,2.544-22.7,8.49c-12.545,26.204-3.161,365.909,13.303,391.491
	C1439.682,787.113,1448.7,789.069,1460.438,788.06z"/>
<path style="fill:#27224F;" d="M1393.146,813.128c6.992,9.99,18.62,17.448,30.958,17.504c2.745,0,5.517-0.384,8.237-1.214
	c1.682-0.513,2.63-2.293,2.117-3.975c-0.513-1.682-2.292-2.63-3.974-2.117h-0.001c-2.094,0.638-4.227,0.937-6.38,0.937
	c-9.628,0.056-19.833-6.24-25.731-14.772c-7.362-10.542-9.929-24.122-11.594-37.711c-5.528-44.589-8.014-152.118-8.008-240.658
	c-0.005-58.245,1.078-108.502,3.007-127.046c0.181-1.749-1.09-3.314-2.839-3.496c-1.749-0.181-3.314,1.09-3.495,2.839
	c-1.983,19.211-3.036,69.307-3.041,127.702c0.006,88.731,2.454,196.093,8.057,241.441
	C1382.183,786.365,1384.744,801.016,1393.146,813.128z"/>
<path style="fill:#27224F;" d="M744.185,303.209c97.629-7.805,195.57-11.712,293.511-11.712c42.521,0,85.042,0.736,127.537,2.208
	c1.758,0.061,3.232-1.315,3.293-3.072c0.04-1.15-0.57-2.135-1.465-2.726c-0.472-0.312-1-0.545-1.607-0.566
	c-3.545-0.123-7.093-0.163-10.639-0.276c-39.027-1.24-78.072-1.936-117.119-1.936c-29.242,0-58.483,0.391-87.717,1.086
	c-68.849,1.638-137.652,5.159-206.302,10.647c-1.753,0.14-3.06,1.675-2.92,3.428c0.025,0.316,0.142,0.596,0.251,0.878
	C741.504,302.445,742.748,303.324,744.185,303.209z"/>
<path style="fill:#27224F;" d="M1550.141,940.809c-22.918-17.992-46.876-32.371-73.1-43.873c-6.161-2.702-12.407-5.294-18.838-7.681
	c-0.728-0.27-1.528-0.427-2.296-0.635c-10.864-2.945-25.348,0.09-34.511,5.451c-9.908,5.798-19.357,17.159-21.95,28.546
	c-2.786,12.228-2.183,25.953,4.815,36.806c7.069,10.965,16.316,17.413,28.546,21.951c1.545,0.573,3.059,1.221,4.593,1.82
	c10.222,4.575,20.153,9.751,29.73,15.534c2.49,1.504,4.958,3.044,7.398,4.628c4.259,2.766,8.42,5.676,12.515,8.689
	c10.088,8.301,19.45,17.419,27.791,27.479c4.589,6.518,8.653,13.365,12.112,20.548c1.812,5.116,3.268,10.335,4.335,15.656
	c0.307,4.616,0.318,9.234,0.016,13.849c-1.088,5.47-2.561,10.838-4.421,16.094c-3.757,7.846-8.202,15.302-13.217,22.407
	c-11.396,13.886-24.472,26.216-38.46,37.471c-3.397,2.523-6.793,5.049-10.262,7.464c-1.097,0.764-2.228,1.48-3.332,2.234
	c-45.52,19.573-85.804,51.263-85.804,106.427c0,40.993,22.369,76.203,54.444,92.006c6.236,3.073,12.81,5.459,19.691,6.958
	c16.077,4.631,33.476,5.79,50.117,4.832c18.114-1.043,36.411-4.478,52.599-12.971c5.708-2.995,7.433-10.954,4.284-16.338
	c-3.384-5.786-10.607-7.291-16.338-4.284c-5.463,2.867-12.078,5.106-19.498,6.803c-0.63,0.144-1.188,0.241-1.795,0.372
	c13.147-4.663,25.315-12.038,35.764-21.507c11.413-10.344-5.517-27.193-16.888-16.888c-8.654,7.842-19.012,13.819-30.156,17.132
	c12.684-7.658,23.165-18.773,30.713-31.514c7.852-13.254-12.786-25.282-20.622-12.054c-7.291,12.308-16.337,20.893-29.826,27.092
	c0.73-14.172,5.708-26.819,23.64-32.655c33.83-11.011,34.891-49.249,34.673-58.105c11.86-10.071,23.019-20.858,32.92-32.652
	c11.963-14.25,23.368-29.376,31.07-46.412c8.801-19.467,13.7-36.917,15.944-58.182
	C1632.841,1033.546,1595.324,976.279,1550.141,940.809z"/>
<path style="fill:#C5DCEA;" d="M796.39,1739.635c-23.818-78.214-56.825-90.849-58.906-91.575c-0.068-0.024-0.105-0.036-0.105-0.036
	l-94.026-11.294l-2.336-0.28c0,0-44.981,35.823-69.779,112.089c-22.912,70.469-35.266,232.332-40.893,330.592
	c0.018-0.003,0.043-0.014,0.061-0.017c58.237-8.836,207.548,71.268,238.37,88.249c0.439-11.116,0.932-23.011,1.426-35.52
	c-61.917-61.485-143.042-82.252-212.397-85.328c-1.757-0.078-3.118-1.565-3.04-3.322c0.078-1.757,1.565-3.119,3.323-3.04
	c68.819,3.05,149.551,23.375,212.444,83.249c1.38-35.94,2.67-76.787,2.67-120.404c0.007-106.621-7.722-229.62-40.528-336.595l0,0
	c-0.515-1.681,0.43-3.462,2.111-3.978c1.682-0.516,3.462,0.43,3.978,2.111c33.104,108.008,40.801,231.527,40.807,338.462
	c0,65.779-2.919,125.249-4.674,170.926c1.078,11.388,2.144,48.99-26.88,70.605h0c39.455,0,101.015-62.462,98.741-108.865
	C846.757,2135.664,814.103,1797.797,796.39,1739.635z"/>
<path style="fill:#C5DCEA;" d="M1440.739,1748.54c-24.798-76.267-69.78-112.089-69.78-112.089l-2.174,0.261l-94.188,11.313
	c0,0-0.037,0.011-0.106,0.036c-2.08,0.726-35.087,13.361-58.906,91.575c-17.712,58.162-50.367,396.029-50.367,396.029
	c-2.274,46.403,59.286,108.865,98.742,108.865h0c-29.023-21.615-27.958-59.216-26.88-70.604
	c-1.756-45.678-4.675-105.148-4.676-170.927c0.007-106.936,7.704-230.455,40.809-338.463l0,0c0.515-1.681,2.297-2.626,3.978-2.111
	c1.681,0.515,2.627,2.296,2.111,3.978c-32.806,106.974-40.536,229.975-40.529,336.596c0,43.617,1.289,84.465,2.67,120.404
	c62.892-59.874,143.624-80.199,212.444-83.249h0.001c1.756-0.078,3.244,1.283,3.321,3.04c0.078,1.757-1.283,3.244-3.04,3.322
	c-69.356,3.076-150.481,23.844-212.398,85.329c0.494,12.509,0.987,24.403,1.426,35.519c30.823-16.981,180.132-97.085,238.37-88.249
	c0.018,0.003,0.043,0.014,0.062,0.017C1476.005,1980.872,1463.651,1819.009,1440.739,1748.54z"/>
<path style="fill:#DCEBF5;" d="M719.104,1665.469l-75.595-14.953c0,0-49.842,44.027-63.133,100.516
	c-13.292,56.488-28.245,271.642-28.245,271.642s68.118-1.662,106.331,10.799c38.212,12.461,71.441,33.229,71.441,33.229
	s8.475-149.324,5.815-215.153C732.395,1769.308,719.104,1665.469,719.104,1665.469z"/>
<path style="fill:#DCEBF5;" d="M1431.602,1751.032c-13.292-56.488-63.134-100.516-63.134-100.516l-75.594,14.953
	c0,0-13.291,103.839-16.614,186.079c-2.66,65.829,5.815,215.153,5.815,215.153s33.228-20.768,71.441-33.229
	c38.212-12.461,106.33-10.799,106.33-10.799S1444.893,1807.521,1431.602,1751.032z"/>
<path style="fill:#DCEBF5;" d="M614.995,310.127c8.185,2.299,16.88,1.496,25.342,0.672c33.531-3.263,67.091-6.537,100.671-9.632
	c-0.109-0.282-0.226-0.562-0.251-0.878c-0.14-1.753,1.167-3.288,2.92-3.428c68.649-5.488,137.453-9.009,206.302-10.647
	c62.981-2.649,125.991-3.126,188.985-0.037c5.274,0.258,10.561,0.557,15.85,0.887c3.546,0.113,7.093,0.154,10.639,0.276
	c0.607,0.021,1.135,0.255,1.607,0.566c43.192,3.305,86.281,10.217,125.207,28.716c29.153,13.855,61.26,34.483,90.97,21.867
	c15.596-6.623,26.575-21.897,30.366-38.411c3.791-16.515,1.01-34.044-5.29-49.774c-4.869-12.159-11.992-23.685-22.186-31.909
	c-10.965-8.847-24.726-13.345-38.243-17.319c-101.703-29.903-208.154-40.121-314.065-44.661
	c-67.429-2.89-135.017-3.537-202.383,0.578c-84.295,5.15-202.734,27.801-232.087,121.759c-1.475,4.723-2.693,9.719-1.784,14.582
	C599.128,301.691,606.809,307.827,614.995,310.127z"/>
<path style="fill:#FFFFFF;" d="M613.076,998.435c0.002-30.833,0.533-61.662,1.092-92.489c0.371-20.499-31.472-20.501-31.844,0
	c-1.993,109.969-3.56,221.03,17.927,329.436c6.033,30.44,14.012,60.458,24.179,89.782c2.816,8.121,10.909,13.505,19.586,11.12
	c7.892-2.168,13.95-11.424,11.121-19.586C619.68,1214.432,613.069,1105.851,613.076,998.435z"/>
<path style="fill:#FFFFFF;" d="M648.494,1665.469c-14.983-5.108-56.726,71.115-61.601,139.53
	c-4.856,68.147-12.831,202.722-1.591,202.722c11.24,0,24.085-91.134,29.663-159.496
	C623.573,1742.725,659.133,1669.097,648.494,1665.469z"/>
<path style="fill:#FFFFFF;" d="M489.109,2150.766c-30.499,29.47-42.91,75.003-32.007,115.922
	c2.145,8.047,11.451,13.753,19.586,11.121c8.266-2.675,13.418-10.962,11.121-19.586c-0.522-1.958-1.011-3.921-1.422-5.906
	c-0.257-1.24-0.462-2.485-0.693-3.729c-0.04-0.216-0.061-0.313-0.085-0.432c-0.496-4.213-0.719-8.459-0.675-12.7
	c0.021-2.022,0.103-4.045,0.244-6.063c0.07-1.01,0.17-2.017,0.255-3.025c0.036-0.424,0.053-0.665,0.073-0.926
	c0.008-0.052,0.01-0.052,0.019-0.114c0.639-4.256,1.539-8.474,2.691-12.621c1.025-3.688,2.263-7.32,3.684-10.876
	c0.178-0.4,0.536-1.226,0.752-1.689c0.427-0.917,0.868-1.828,1.322-2.732c0.908-1.808,1.869-3.589,2.881-5.341
	c1.139-1.969,2.34-3.902,3.608-5.791c0.564-0.839,1.152-1.662,1.728-2.491c0.206-0.296,0.402-0.568,0.555-0.78
	c2.715-3.455,5.722-6.673,8.879-9.724c6.001-5.798,6.263-16.769,0-22.517C505.18,2144.849,495.511,2144.58,489.109,2150.766z"/>
<path style="fill:#FFFFFF;" d="M1519.673,2146.952c-5.338-6.438-17.07-5.934-22.517,0c-6.282,6.844-5.694,15.65,0,22.517
	c3.643,4.394,9.063,12.557,12.782,19.771c0.994,1.93,1.907,3.896,2.833,5.859c0.296,0.628,0.432,0.896,0.503,1.019
	c0.058,0.178,0.17,0.497,0.426,1.174c1.537,4.066,2.972,8.152,4.152,12.338c1.177,4.178,2.149,8.416,2.901,12.691
	c0.006,0.037,0.365,2.356,0.473,2.933c0.238,1.91,0.429,3.829,0.571,5.747c0.318,4.327,0.416,8.669,0.286,13.006
	c-0.065,2.168-0.186,4.334-0.365,6.496c-0.047,0.565-0.775,6.635-0.374,3.85c-1.181,8.207,2.016,17.512,11.121,19.586
	c7.533,1.716,18.317-2.305,19.586-11.121C1558.08,2220.92,1546.743,2179.603,1519.673,2146.952z"/>
<path style="fill:#FFFFFF;" d="M1363.483,1665.469c-10.638,3.628,24.921,77.256,33.529,182.756
	c5.578,68.362,18.423,159.496,29.662,159.496c11.241,0,3.266-134.575-1.59-202.722
	C1420.209,1736.584,1378.466,1660.361,1363.483,1665.469z"/>
<path style="fill:#FFFFFF;" d="M1506.976,438.54c3.531-7.834,2.256-17.123-5.712-21.784c-6.816-3.986-18.234-2.165-21.784,5.712
	c-39.375,87.364-29.825,183.985-18.466,276.344c1.049,8.534,6.567,15.922,15.922,15.922c7.79,0,16.978-7.329,15.921-15.922
	C1482.349,613.367,1470.397,519.701,1506.976,438.54z"/>
<path style="fill:#FFFFFF;" d="M1255.609,192.647c-129.393-26.299-262.198-35.575-393.962-26.754
	c-37.805,2.531-75.467,6.635-112.977,11.968c-8.521,1.211-13.19,12.053-11.12,19.586c2.517,9.16,11.038,12.336,19.586,11.121
	c126.911-18.041,256.447-18.699,383.617-2.815c35.676,4.456,71.16,10.441,106.391,17.601c8.419,1.71,17.199-2.432,19.586-11.121
	C1268.89,204.369,1264.076,194.368,1255.609,192.647z"/>
<path style="fill:#659FBA;" d="M1435.948,809.342c12.34-0.412,22.418-9.565,24.49-21.282c-11.737,1.009-20.755-0.947-24.495-6.757
	c-16.464-25.582-25.847-365.287-13.303-391.491c2.846-5.946,11.271-8.57,22.7-8.49c-4.25-9.046-13.599-15.216-24.179-14.862
	c-14.156,0.472-25.351,12.441-24.878,26.597l13.068,391.408C1409.823,798.62,1421.792,809.815,1435.948,809.342z"/>
<ellipse style="fill:#47BCCA;" cx="1542.777" cy="580.681" rx="30.321" ry="127.076"/>
</svg>
